<svg xmlns="http://www.w3.org/2000/svg" viewBox="0 0 327 650">
    <path fill="#e3a313" d="M36 300V0c24 144 101 167 104 199-39-36-69 13-39 69s90 26 54-49c40 6 68 59 64 97-6-17-31-14-30 11s32 24 45 22 25-12 40-33c18-25 31-84-11-143 103 77 53 190 46 217h-88l-11 17 92-1-6 15h-92l-10 16h92c-31 60-95 114-155 143 31-32 41-92 6-102S30 542 39 650c-45-50-58-169-1-241 17 18 47 27 63 9s11-55 0-77-36-45-65-41z"/>
    <path fill="#e3a313" d="M95 366c0 15-13 28-30 28s-29-13-29-28c0-16 13-28 29-28s30 12 30 28z"/>
</svg>
