<svg id="svg2" xmlns="http://www.w3.org/2000/svg" viewBox="0 0 327.01 649.5"><defs><style>.cls-1{fill:#e3a313;}</style></defs><title>vector_protoss_logo_by_elrondsmith-d4f4rt4</title><g id="g3598"><g id="g3623"><path id="path2818" class="cls-1" d="M36.1,299.7,35.8,0c24.7,144,101,167,104,198.8-38.9-36.2-69,13.3-39.1,69S191.4,294,155,218.9c39.5,5.7,67.8,59.1,63.6,96.8-6-16.6-31-13.2-29.6,11.8s31.6,23.1,44.8,21.1,25.4-12.1,40.3-32.9c17.8-24.9,31-83.5-10.7-142.9,102.3,77.1,52.2,190.3,45.3,217l-88.1-.3-10.3,17.2,91.7-.3-6.4,14.2H204.2l-10.3,16.2,92.4.3C254.9,497.2,191.2,550.7,131.1,580c31-32.2,41.4-91.7,5.9-102.5s-106.7,64.8-97.6,172c-45.4-49.3-58.5-169-1.8-240.2,17,17.2,47.4,27.1,63.3,8.8s11.2-55,.5-77.2-36.6-44.6-65.3-41.2Z" transform="translate(-0.01)"/><path id="path3596" class="cls-1" d="M94.5,365.6c0,15.5-13,28.1-29.1,28.1s-29.1-12.6-29.1-28.1h0c0-15.5,13-28.1,29.1-28.1s29.1,12.6,29.1,28.1Z" transform="translate(-0.01)"/></g></g></svg>