<svg xmlns="http://www.w3.org/2000/svg" canvas="0 0 366 368">
    <path fill="#382" d="M212 0l-4 1L47 48v1l143 114c2 3 4 3 7 2l160-56c4-1 4-1 0-4L217 2l-5-2zm-19 14l10 1c14 3 24 12 22 19-1 7-14 11-28 8s-24-12-22-19c1-6 9-9 18-9zm-90 27l10 1c14 4 24 12 22 19-2 8-15 12-29 8-14-3-24-11-22-19 1-5 9-9 19-9zm137 7l10 2c14 3 24 11 22 19-2 7-14 11-28 7-14-3-24-11-23-19 2-5 9-9 19-9zM37 57l-1 2L0 240l2 4 137 119c4 3 4 3 5-1l40-184c1-3 0-4-2-5L39 58l-2-1zm112 21l10 1c14 3 24 12 22 19s-15 11-29 8-23-12-22-19c2-6 9-9 19-9zm139 6l10 1c14 3 24 12 22 19-2 8-15 11-29 8s-24-12-22-19c2-6 9-9 19-9zM46 91h2c6 0 13 6 18 16 5 13 3 28-5 33-7 5-18-1-24-15-5-13-3-28 4-33l5-1zm151 23l10 2c14 3 24 11 22 19-2 7-15 11-29 7-14-3-24-11-22-19 1-5 9-8 19-9zm168 6h-1l-165 57c-3 1-3 2-4 4l-40 184c0 2-1 4 2 2l162-60c3-2 4-2 4-5l42-181v-1zm-27 29c5 0 8 3 10 7 3 9-3 22-14 31-11 8-22 8-25-1-4-8 2-22 13-31 6-4 11-6 16-6zm-199 16c7 0 14 7 18 17 6 13 4 28-4 33s-19-2-24-15c-6-13-4-28 4-33a10 10 0 0 1 6-2zm-59 21c7 0 14 7 18 17 6 13 4 28-4 33-7 5-18-2-24-15-5-13-4-28 4-33a10 10 0 0 1 6-2zm-58 21h2c7 1 14 7 18 17 5 13 4 28-4 33s-19-2-24-15c-6-13-4-28 4-33l4-2zm254 18c5 0 9 2 10 6 3 9-3 23-14 31-11 9-22 9-25 0-4-9 3-23 14-31a28 28 0 0 1 15-6zm-164 59h2c6 0 14 6 18 16 5 13 3 28-4 33-8 5-19-1-24-15-6-13-4-28 4-33l4-1zm97 19c5 0 9 2 10 6 4 9-3 23-14 31-10 8-22 8-25 0-3-9 3-23 14-31 5-4 11-7 15-6z"/>
</svg>
