<?xml version="1.0" encoding="UTF-8"?>
<svg width="365.62958" height="367.73712" xmlns="http://www.w3.org/2000/svg">
 <title>Six Sided Dice</title>

 <metadata id="metadata3123">image/svg+xmlSix Sided DiceBrian Burger/Wirelizard DesignSimple six-sided dice (d6).</metadata>
 <g>
  <title>Layer 1</title>
  <g id="layer1">
   <path fill="#382" id="path3924" d="m211.58815,0.001404c-1.05928,-0.023193 -2.203568,0.239197 -3.654541,0.730743l-160.795586,47.215546c-1.338013,0.312683 -1.260269,0.67334 -0.14621,1.534943l142.742653,113.945587c2.628311,2.179047 3.864624,2.449188 7.528183,1.315552l160.064651,-55.474487c3.672211,-1.349426 3.927399,-1.677795 0.146362,-4.166138l-140.476913,-102.763c-2.168839,-1.528412 -3.643387,-2.30484 -5.408554,-2.338745l-0.000046,0zm-18.345444,13.813782c3.202103,-0.023193 6.582397,0.328278 10.086334,1.096283c14.015656,3.073029 23.956055,11.638336 22.145905,19.076416c-1.810165,7.437866 -14.635193,10.966553 -28.650726,7.893494c-14.015747,-3.073059 -23.956131,-11.565063 -22.145996,-19.003143c1.357544,-5.578552 8.958603,-9.015564 18.564484,-9.063049zm-90.630272,27.554565c3.202072,-0.023224 6.655426,0.328125 10.159393,1.096344c14.015625,3.073059 23.883003,11.565186 22.072838,19.003021c-1.81015,7.43811 -14.635185,11.039642 -28.650826,7.966705c-14.01564,-3.072968 -23.883011,-11.638031 -22.072845,-19.076111c1.357681,-5.578552 8.885544,-8.942627 18.49144,-8.98996zm137.334145,7.016418c3.20195,-0.023193 6.655502,0.401337 10.159348,1.169525c14.015656,3.072845 23.882935,11.565094 22.072876,19.003052c-1.81015,7.437958 -14.635193,10.966553 -28.650833,7.893524c-14.015732,-3.072876 -23.883102,-11.565094 -22.072952,-19.003052c1.357697,-5.578339 8.885544,-9.015564 18.491562,-9.063049zm-202.894783,8.843842c-0.293503,0.074799 -0.388306,0.533325 -0.584717,1.461884l-36.252151,181.333435c-0.422348,1.88623 -0.348198,2.353577 1.388702,3.873901l137.699471,118.696228c3.202881,3.061218 3.875732,3.021729 4.312256,-0.730957l40.125854,-183.891541c0.84082,-2.505402 -0.024902,-3.883698 -1.461746,-5.043213l-143.765923,-114.82254c-0.740005,-0.624268 -1.168228,-0.951477 -1.461761,-0.877167l0.000015,-0.000031zm111.825981,20.684113c3.202072,-0.023193 6.655441,0.328156 10.159393,1.096497c14.015625,3.073029 23.882996,11.565033 22.07283,19.003021c-1.81015,7.43808 -14.635162,10.966553 -28.650909,7.893707c-14.015549,-3.073029 -23.882919,-11.565155 -22.072754,-19.003143c1.357559,-5.578644 8.885544,-8.942596 18.49144,-8.990082zm138.795868,6.066437c3.201965,-0.023224 6.655457,0.328125 10.159393,1.096252c14.015656,3.073059 23.883026,11.565063 22.072845,19.003143c-1.81015,7.43808 -14.635162,11.039825 -28.650909,7.966766c-14.015656,-3.073059 -23.883026,-11.638336 -22.072845,-19.076324c1.357666,-5.578339 8.885529,-8.942261 18.491516,-8.989838zm-241.705055,6.651001c0.540115,-0.05368 1.131424,-0.029388 1.681015,0c6.595749,0.349213 13.737991,6.530579 17.90683,16.445221c5.558319,13.219299 3.705246,28.055115 -4.092987,33.1091c-7.798218,5.053925 -18.634048,-1.544647 -24.192368,-14.764069c-5.55835,-13.219391 -3.705368,-28.055115 4.092957,-33.10907c1.462067,-0.947693 2.984512,-1.520721 4.604553,-1.681183zm150.636284,23.827087c3.20195,-0.023102 6.655426,0.328156 10.159286,1.096436c14.015717,3.072876 23.883102,11.565094 22.072952,19.003052c-1.810272,7.437988 -14.6353,10.966583 -28.650833,7.893616c-14.015747,-3.073059 -23.883026,-11.565063 -22.072845,-19.003143c1.357574,-5.578552 8.885544,-8.942474 18.49144,-8.98996zm168.177658,5.043091c-0.307281,0.063202 -0.739441,0.170868 -1.242523,0.365448l-164.37709,57.00943c-3.348007,1.378387 -3.247589,1.941101 -3.800659,4.458405l-40.052658,183.306946c-0.135956,2.698792 -1.130219,3.926941 2.046524,2.485168l161.965012,-60.5177c3.142792,-1.503601 3.745178,-1.7677 4.092987,-4.823792l42.026123,-180.749023c0.348236,-1.273346 0.263794,-1.727173 -0.657745,-1.534851l0.000031,-0.000031zm-26.67749,29.747162c4.628387,0.074799 8.260376,2.326233 9.867065,6.651245c3.213135,8.649719 -2.974548,22.494019 -13.886993,30.916473c-10.912506,8.422424 -22.367889,8.211426 -25.581116,-0.438507c-3.213348,-8.649811 2.974426,-22.494141 13.88681,-30.916565c5.456238,-4.211304 11.085724,-6.287292 15.714233,-6.212646zm-199.240433,15.860382c6.678894,0.170776 13.965225,6.4487 18.199112,16.518188c5.558319,13.219391 3.77832,28.055115 -4.019928,33.1091c-7.798218,5.053955 -18.634033,-1.617493 -24.192383,-14.836884c-5.558311,-13.219421 -3.705345,-27.9823 4.092987,-33.036255c1.462158,-0.947723 2.984116,-1.520935 4.604553,-1.681183c0.438919,-0.045288 0.870422,-0.084198 1.315659,-0.072601l0,-0.000366zm-58.690376,21.19577c6.678787,0.170776 13.965134,6.448792 18.199127,16.518066c5.558334,13.219391 3.77832,28.055145 -4.019913,33.109314c-7.798233,5.053955 -18.634064,-1.617584 -24.192383,-14.837006c-5.558319,-13.219391 -3.705231,-27.982147 4.092972,-33.036133c1.462067,-0.947723 2.9841,-1.520935 4.604538,-1.681183c0.438919,-0.045288 0.870468,-0.084198 1.315659,-0.072601l0,-0.000458zm-57.813309,20.976471c0.539917,-0.05368 1.131317,-0.027283 1.680939,0c6.595734,0.349213 13.664917,6.60376 17.833755,16.518066c5.558319,13.219421 3.778397,27.982269 -4.019836,33.036224c-7.798309,5.053955 -18.634155,-1.544617 -24.192474,-14.764038c-5.558342,-13.219391 -3.705261,-28.055115 4.092957,-33.10907c1.462173,-0.947723 2.984512,-1.520752 4.60466,-1.681183zm254.057076,17.54126c4.528992,0.1474 8.139343,2.393799 9.720764,6.651245c3.213348,8.649811 -3.047607,22.49411 -13.959961,30.916473c-10.912476,8.422424 -22.367859,8.211548 -25.58107,-0.438477c-3.213348,-8.649719 3.047562,-22.49408 13.959915,-30.916504c4.7742,-3.684814 9.641418,-5.73761 13.886902,-6.139465c0.682312,-0.065277 1.326447,-0.093689 1.97345,-0.072601l0,-0.000671zm-164.230766,58.690582c0.539993,-0.05365 1.131317,-0.027283 1.681015,0c6.595642,0.349243 13.737991,6.530518 17.906807,16.444946c5.558334,13.219299 3.705261,28.05542 -4.092964,33.109314c-7.798248,5.054016 -18.56102,-1.544678 -24.119339,-14.763977c-5.558334,-13.21936 -3.778412,-28.055298 4.019821,-33.109375c1.462158,-0.947388 2.984497,-1.52063 4.60466,-1.680908zm97.281303,19.003174c4.628479,0.074768 8.2603,2.253052 9.866989,6.577942c3.213211,8.649719 -2.974442,22.493958 -13.886917,30.916504c-10.912384,8.422363 -22.367859,8.284363 -25.5811,-0.365479c-3.213242,-8.649658 2.974411,-22.494202 13.886902,-30.916626c5.456223,-4.211121 11.085617,-6.286987 15.714127,-6.212341z"/>
  </g>
 </g>
</svg>
