<svg xmlns="http://www.w3.org/2000/svg" viewBox="0 0 512 512">
    <path fill="#3390ff" d="M238 74l-78-31h-2L77 58c-1 0-2 1-2 3l2 2 28 13c15 8 42 25 47 35h1c2 4 2 8 2 13l1 259s1 33 77 85h7V76l-2-2zM273 74l78-31h2l81 15c1 0 2 1 2 3l-2 2-28 13c-15 8-42 25-47 35-3 5-3 9-3 13l-1 259s-1 33-77 85c-2 1-6 2-7 0V76l2-2z"/>
    <path d="M57 181h130l17 16h3l46-50v-3l-2-2H83c-7 0-14 2-19 5-5 5-10 12-10 25v6l3 3c0-1 0-1 0 0zm430-36H301l-33 32v3l1 1h148l8 11h4l60-43v-3l-2-1zm-61 196l-15 2c-44-2-80-36-83-79l-1-17c0-15 1-30 4-44l-1-2-2-1h-66l-2 2c-6 16-9 34-9 52 0 14 2 21 7 39 13 39 61 77 99 77 57 0 71-20 72-27 0-1-1-2-3-2zM148 202H72c-2 0-2 1-2 2v1a27403 27403 0 0 0 104 120l-1 1h-59c-9 0-17-3-24-8l-8-8h-3l-56 52v3l1 1h209c12 0 20-13 20-25 0-5-1-10-4-13L148 202z" fill="#cce1ff"/>
</svg>
