<svg id="svg2" xmlns="http://www.w3.org/2000/svg" viewBox="0 0 516.1 505.6"><defs><style>.cls-1{fill:#006fce;}</style></defs><title>vector_terran_logo_by_elrondsmith-d4f4qkg</title><g id="g2871"><path id="path2818" class="cls-1" d="M258.8,62.9,246.4,86.6H214.2L258.6,0,303,86.5l-32.5.2L258.8,62.9Z"/><path id="path2820" class="cls-1" d="M299.6,114.3c4.9,2.5,14,6.6,21.7,12.5,7.1,5.4,10.7,10.3,15.3,15.5a56.75,56.75,0,0,1,9.8,14.8c1.6,3.8,3.1,11.4-1.9,11.4s-11-17.6-28.8-14.3c6.2,3.2,13.7,10.7,13.3,19.2-2.7-3.5-8.3-5.6-14.5-3.9,7.6,4.6,10.1,24.2-1,26.9-11.4,2.7-18.4-5.3-23.8-13.5s-.7-28.7-13.7-36.1-38.6-5-46.7,8.5c-13.7.3-25.4,12.9-15.3,30.3,5.2-16.6,17.9-7.8,17.2.1s-10,15.7-24.3,11.8-10.1-23.3-2.5-27.9c-6.2-1.7-11.8.4-14.5,3.9-.4-8.5,7.2-16,13.4-19.2-17.9-3.3-23.8,14.3-28.8,14.3s-3.5-7.6-1.9-11.4a60.23,60.23,0,0,1,9.8-14.8c4.6-5.1,8.2-10,15.3-15.5,7.7-5.9,16.8-10,21.7-12.5H66.8L43.4,170.3c29.2-21.2,62.6-20.1,63.9,8.5s-19.5,32.3-39.9,31.8l.2,74.9c10.7-21.8,22.2-38,34.7-45.8,12.2-7.6,22.4-9.9,31-5.3s13,26.4-15.7,57.3l35.6,30c5.8-23.8,14.4-36.1,23.5-42.6,7.1-5,12.6-6.7,18.1-3.7s6.2,12.4,2.7,21.3c-3.7,9.4-14.8,26.1-14.8,26.1,5.8,0,6.2,12.7-12.6,14.3s-29.7,3.8-35.2,16.7-4.4,27,9.9,34.8c-2.3-15.6,8.1-29.4,17.6-30s11.9,4.8,13.1,9.2-1.3,9.7-5.9,13c15.9,2.6,18.2-6.9,18.2-15.7s5.1-4.3,4.1-.4c3.9-3.8,9.2-8.8,15.1-14.1l-70.1,155c44-31.5,72.2-19.4,96-14.5l26.5-59.6h.4l26.5,59.6c23.8-4.9,52.1-17,96,14.5l-70.1-155c5.9,5.4,11.3,10.3,15.1,14.1-1-4,4.1-8.4,4.1.4s2.3,18.3,18.2,15.7c-4.6-3.3-7.1-8.8-5.9-13,1.2-4.4,3.6-9.9,13.1-9.2s20,14.4,17.6,30c14.2-7.8,15.4-22.1,9.9-34.8s-16.5-15-35.3-16.7-18.4-14.3-12.6-14.3c0,0-11.1-16.7-14.8-26.1-3.5-8.9-2.9-18.3,2.6-21.3s11-1.3,18.1,3.7c9.1,6.4,17.7,18.7,23.5,42.6l35.6-30c-28.7-30.9-24.2-52.7-15.7-57.3s18.7-2.3,30.9,5.3c12.4,7.8,24,23.9,34.7,45.8l.2-74.9c-20.3.5-41.2-3.2-39.9-31.8s34.7-29.7,63.9-8.5l-23.5-56Z"/><path id="path2822" class="cls-1" d="M0,501.7,92.1,324.9l24.7,14.4L48,473h62.2L97.6,500.9Z"/><path id="path2822-0" class="cls-1" d="M516.1,501.4,424,324.7l-24.7,14.4,68.8,133.7H406l12.6,27.9Z"/></g></svg>