<svg version="1" xmlns="http://www.w3.org/2000/svg" viewBox="0 0 640 640">
    <path fill="#0006ce" d="M370 77l27 16c9 7 13 13 19 19l12 18c2 5 4 15-3 15-6 0-13-22-35-18 7 4 17 13 16 24-3-5-10-7-18-5 10 6 13 30-1 33-14 4-23-6-29-17-7-10-1-35-17-44-17-9-48-7-58 10-17 1-32 16-19 38 6-21 22-10 21 0s-12 19-30 15c-18-5-13-29-3-35-8-2-15 0-18 5-1-11 9-20 16-24-22-4-29 18-35 18-7 0-5-10-3-14 3-7 8-13 12-19l19-19c10-7 21-12 27-15H81l-29 69c36-26 78-25 79 10 2 36-24 40-49 40v93c13-27 28-47 43-57s28-12 39-7c10 6 16 33-20 71l44 38c7-30 18-45 29-53 9-6 16-9 23-5s8 16 3 27c-4 11-18 32-18 32 7 0 8 16-16 18-23 2-37 4-43 20-7 16-6 34 12 44-3-20 10-37 22-38 11 0 14 6 16 12 1 5-2 12-7 16 19 3 22-9 22-20s6-5 5 0l19-18-87 193c55-39 90-24 119-18l33-74 33 74c30-6 65-21 119 18l-87-193 19 18c-1-5 5-11 5 0s3 23 23 20c-6-4-9-11-8-16 2-6 5-13 17-12s25 18 22 38c17-10 19-28 12-44-7-15-21-18-44-20s-23-18-16-18c0 0-13-21-18-32-4-11-4-23 3-27s14-1 23 5c11 8 22 23 29 53l44-38c-36-38-30-65-19-71 10-5 23-3 38 7s30 30 43 57v-93c-25 0-51-4-49-40 1-35 43-36 79-10l-29-70H370z"/>
</svg>
