<svg xmlns="http://www.w3.org/2000/svg" viewBox="0 0 708 787">
  <path d="M398 15c33 16 83 53 101 81 18 29 21 56 21 56s-31-6-45 6-15 43-1 57 46 12 56-1 21-25 29-58 1-62-11-91c6 2 14 8 25 22s29 48 37 70 13 43 12 69-3 29-3 29-18-10-29-9c-12 1-30 5-35 28s13 38 34 39 42-26 52-42 18-61 19-70c7 12 12 45 10 79-1 34-4 49-11 70s-10 18-10 18-18-10-29-9-28 11-29 25c0 14 7 37 40 33 33-3 59-52 77-89 0 0 0 38-14 84s-38 96-81 149c-34 41-99 92-107 101-12-4-84-25-127-47s-58-34-84-62c-26-29-38-55-38-98s13-75 44-98 82-27 105 3c23 29 18 60 11 75s-28 31-28 31c11-27 6-63-35-60s-45 46-35 72c11 27 76 58 126 17s52-105 27-154c-24-48-74-79-126-69-51 9-106 53-125 92s-27 56-24 106 42 126 81 160c39 33 61 54 99 69s41 15 41 15c-45 56-134 73-164 74-29 0-54-1-83-9-29-7-47-16-64-31-16-14-26-36-26-36s18 20 39 29 55 18 90 2 50-62 12-98c-18-14-39-19-60-10s-32 39-12 69c-7-5-8-4-21-20-14-17-27-47-27-65s4-23 4-23 34 23 49-10-23-53-41-49-24 15-33 34-14 44-14 68c-4-6-6-15-10-32s-5-31-6-44 0-21 2-44 5-24 5-24c14 13 29 11 43 7 13-3 24-18 23-35s-12-32-43-31-54 41-66 70a182 182 0 0 1 49-139c1 6 1 5 10 15 8 10 28 15 41 8s25-26 17-41-21-27-42-26c-20 0-47 13-66 33L0 381s9-42 29-68 38-44 59-54c20-10 38-14 38-14s-10 35 5 43 27 8 42 1 17-29 10-46c-8-17-37-26-62-31s-45-4-67 1c-21 5-22 8-22 8s25-29 62-47c37-19 53-20 86-20s45 7 45 7c0 1-5 8-9 19s-2 23 14 34c15 11 47 3 53-17s-1-43-11-65c-13-26-40-39-58-45-18-7-37-9-58-12 0 0 61-13 103-8 42 4 56 8 80 23 23 14 31 28 31 28s-14-1-28 8-19 34-7 49 45 18 70-13c25-32 21-90-2-117-22-26-36-39-45-45 0 0 7-1 40 15z" fill="#c61a00"/>
</svg>
