<?xml version="1.0" encoding="utf-8"?>
<!-- Generator: Adobe Illustrator 21.1.0, SVG Export Plug-In . SVG Version: 6.00 Build 0)  -->
<svg version="1.1" id="Layer_1" xmlns="http://www.w3.org/2000/svg" xmlns:xlink="http://www.w3.org/1999/xlink" x="0px" y="0px"
	 viewBox="0 0 708 787.4" style="enable-background:new 0 0 708 787.4;" xml:space="preserve">
<style type="text/css">
	.st0{fill:#932FF5;}
</style>
<g id="svg3043" inkscape:version="0.47 r22583" sodipodi:docname="zerg.svg" xmlns:cc="http://creativecommons.org/ns#" xmlns:dc="http://purl.org/dc/elements/1.1/" xmlns:inkscape="http://www.inkscape.org/namespaces/inkscape" xmlns:rdf="http://www.w3.org/1999/02/22-rdf-syntax-ns#" xmlns:sodipodi="http://sodipodi.sourceforge.net/DTD/sodipodi-0.dtd" xmlns:svg="http://www.w3.org/2000/svg">
	<g id="layer1" inkscape:groupmode="layer" inkscape:label="Layer 1">
		
			<path id="path2999" sodipodi:nodetypes="czczzzzczzzczzzzczzczzzczcczzzzzzczzzzzzzzzczszczzczcczczzzczzzczzzczczzzzzczzczzzzzczzczzzczczzczzzzczc" class="st0" d="
			M397.8,15.1c32.9,15.7,83.4,52.8,101.4,81.3c18,28.5,20.7,56.1,20.7,56.1s-31.1-6.7-44.8,5.4c-13.7,12.1-15.3,43.1-0.7,57.1
			s45.2,11.5,56-1s20.8-25.4,28.7-58.1c7.9-32.6,0.6-62-11-90.6c6.1,1.3,14,7.2,24.7,21.3s29.3,47.9,37.2,70.2
			c7.9,22.4,12.6,43.2,11.9,69.2s-3.4,28.7-3.4,28.7s-17.7-9.4-28.9-8.4c-11.7,1-29.3,4.7-34.3,27.3s13.1,38.7,34.1,39.1
			s41.4-25.5,51.9-42s18-60.5,18.8-69.5c7,11.6,11.4,44.8,10.1,78.9c-1.3,34.1-4.5,49.2-11.6,69.9c-7,20.7-9.3,17.5-9.3,17.5
			s-18.1-9.2-29.5-8.2s-27.6,10.6-28.5,24.9c-0.8,14.2,6.6,36.4,39.5,32.9c32.8-3.5,58.8-51.6,77.3-89.5c0,0,0,38.8-14.2,84.9
			s-38.1,95.1-81.2,148.2c-33.4,41.2-98.3,92.7-106.8,101.2c-12-4.2-84.4-24.9-127.3-47.2s-58-33.9-84-62.1
			c-26-28.2-37.3-54.6-37.7-97.5c-0.4-42.9,13.5-74.9,44.1-98.2c30.5-23.3,82.2-27.3,105.3,2.6c23.1,29.9,17.7,60.2,10.7,75.3
			c-7,15-28.5,30.8-28.5,30.8c11.5-26.5,6.4-63.1-34.5-59.4s-44.8,45.4-34.6,72c10.1,26.5,75.2,57.9,125.3,16.9
			s52.3-105.2,27.6-153.7c-24.7-48.4-74.4-79-126-69.5c-51.7,9.4-106.8,53-125.5,92.1c-18.7,39-26.7,56.2-24.2,105.5
			s42.1,126,81.4,160c39.4,33.9,60.7,54,98.8,69.6s40.8,14.7,40.8,14.7c-45,56.6-133.9,73.6-163.4,74c-29.4,0.4-54-0.7-82.9-8.4
			c-29.3-7.8-47.6-16.4-64.1-31.1c-16.5-14.7-26.7-36.5-26.7-36.5s18.3,20.6,39.6,29.4c21.3,8.8,54.7,18.1,89.4,2
			s50.2-62.7,12.8-98.1c-18.6-14.2-39.1-18.8-60.1-10.2s-32,38.6-11.9,68.9c-7.3-4.4-8.5-4-21.8-19.8
			c-13.5-16.8-26.4-46.7-26.4-65.2s3.7-22.7,3.7-22.7s34,23.1,49.3-10s-22.7-53.5-40.7-48.7s-24.4,15-33.9,34s-13.5,44-13.3,67.9
			c-3.8-6.6-6.5-15.4-10.6-31.9s-4.8-30.9-5.3-44.5s-0.2-20.8,1.9-43.9c2.1-23.1,5.1-23.7,5.1-23.7c13.2,13,28.4,10.2,42.2,6.7
			c13.7-3.5,24.9-17.6,23.6-34.6S111.7,435,81,435.9s-53.7,40.7-65.6,70.4c-2-7.5-1.4-44.8,9.4-74.7c10.7-29.9,32.5-59.4,39.1-64.3
			c1.5,5.7,1,5.2,9.7,14.9c8.8,9.8,28.6,14.5,41.4,7.8s24.7-26.4,17.2-41s-21.4-26.8-41.9-26.4c-20.5,0.3-47.2,13.4-66.6,33.5
			c-19.4,20-23.7,25-23.7,25s8.8-41.8,28.9-67.8c20.1-26.1,38.3-43.9,58.8-54.1c20.5-10.2,38.3-14.3,38.3-14.3s-10.1,35.2,4.7,43.4
			s27.2,7.5,42,0.7s17.6-29.2,9.9-46.3c-7.7-17-36.4-25.8-61.7-31s-45-3.4-66.6,1.3c-21.7,4.7-22.4,7.6-22.4,7.6
			s25.1-28.5,61.7-46.7c37.3-18.6,53.5-19.5,86.5-19.7s45.2,6.8,45.2,6.8c0,0.7-5.7,8-9.5,18.8s-1.6,23.6,13.8,34.5
			c15.5,10.8,47,2.8,53-17.1s-0.4-43.3-10.8-65.6c-13.2-25.3-39.9-38.1-58.1-44.9c-18.2-6.9-36.9-8.5-57.8-11.5
			c0,0,61.5-13,103.3-8.4c41.8,4.5,56.2,8.7,79.3,22.8c23.1,14.1,31.4,28.8,31.4,28.8s-13.5-1.4-28.3,7.8s-18.7,34.1-7,48.5
			s45,18.8,70.2-12.7c25.2-31.5,21.6-90-1.4-116.5c-22.9-26.7-36.1-39-45.2-45.5C358.2,0,365-0.6,397.8,15.1L397.8,15.1L397.8,15.1z
			"/>
	</g>
</g>
</svg>
